<?xml version="1.0"?>
<svg version="1.1" xmlns="http://www.w3.org/2000/svg" width="100px" height="70px" style=""><path fill="#e82c2c" d="M13.19140625,51.2890625q0-0.68359375,0.46875-0.869140625t1.015625-0.185546875q0.95703125,0,1.62109375,0.859375t1.259765625,1.884765625t1.181640625,1.884765625t1.38671875,0.859375q0.60546875,0,1.103515625-0.302734375t0.859375-0.76171875t0.556640625-1.03515625t0.1953125-1.142578125q0-1.484375-0.595703125-3.06640625t-1.5234375-3.26171875t-1.962890625-3.4375t-1.953125-3.57421875t-1.5234375-3.701171875t-0.60546875-3.798828125q0-2.87109375,1.71875-4.453125t4.53125-1.58203125q0.95703125,0,1.93359375,0.2734375t1.796875,0.8203125t1.337890625,1.34765625t0.517578125,1.875q0,0.3515625-0.517578125,0.458984375t-0.751953125,0.107421875q-0.3515625,0-0.76171875-0.087890625t-0.52734375-0.478515625t-0.33203125-0.8984375t-0.537109375-0.947265625t-0.76171875-0.76171875t-0.966796875-0.322265625q-0.87890625,0-1.494140625,0.361328125t-0.99609375,0.966796875t-0.56640625,1.357421875t-0.185546875,1.552734375q0,1.875,0.64453125,3.779296875t1.6015625,3.7890625t2.080078125,3.720703125t2.080078125,3.57421875t1.6015625,3.3984375t0.64453125,3.14453125q0,1.328125-0.625,2.24609375t-1.58203125,1.494140625t-2.119140625,0.83984375t-2.275390625,0.263671875q-1.19140625,0-2.44140625-0.478515625t-2.24609375-1.318359375t-1.640625-1.962890625t-0.64453125-2.431640625z M30.8119140625,42.822265625q-0.048828125-0.654296875,0.078125-1.201171875t0.5078125-0.888671875t1.220703125-0.341796875q0.1953125,0,0.478515625,0.048828125t0.556640625,0.126953125t0.458984375,0.234375t0.185546875,0.4296875l0,2.20703125q0.76171875-0.87890625,1.66015625-1.259765625t2.05078125-0.380859375q0.87890625,0,1.73828125,0.400390625t1.62109375,1.064453125t1.318359375,1.46484375t0.810546875,1.6015625q0.15625-0.72265625,0.3515625-1.767578125t0.576171875-2.001953125t1.005859375-1.640625t1.66015625-0.68359375q1.11328125,0,1.875,0.80078125t1.240234375,2.080078125t0.72265625,2.861328125t0.361328125,3.125t0.1171875,2.880859375l0,2.099609375q0,0.234375-0.17578125,0.380859375t-0.439453125,0.224609375t-0.546875,0.09765625t-0.439453125,0.01953125q-0.60546875,0-1.103515625-0.185546875t-0.498046875-0.947265625l0-1.7578125t-0.0390625-2.275390625t-0.13671875-2.44140625t-0.25390625-2.216796875t-0.400390625-1.6015625t-0.595703125-0.625q-0.48828125,0-0.703125,0.546875t-0.361328125,1.38671875t-0.224609375,1.77734375t-0.21484375,1.77734375t-0.439453125,1.376953125t-0.830078125,0.537109375q-0.56640625,0-0.99609375-0.537109375t-0.849609375-1.337890625t-0.83984375-1.71875t-0.927734375-1.71875q-0.5078125-0.8203125-1.09375-1.328125q-0.52734375-0.48828125-1.19140625-0.46875l-0.09765625,0q-0.87890625,0.0390625-1.376953125,0.634765625t-0.76171875,1.455078125t-0.322265625,1.845703125t-0.05859375,1.728515625q0,0.703125,0.1171875,1.640625q0.078125,0.625,0.078125,1.19140625q0,0.29296875-0.01953125,0.56640625q-0.05859375,0.8203125-0.439453125,1.376953125t-1.416015625,0.556640625q-0.390625,0-0.9765625-0.078125t-0.78125-0.52734375q-0.44921875-0.80078125-0.68359375-2.021484375t-0.3515625-2.51953125t-0.13671875-2.578125t-0.01953125-2.197265625q0-0.64453125-0.048828125-1.298828125z M55.444140625,47.24609375q0-1.796875,0.419921875-3.525390625t0.712890625-3.447265625q0.078125-0.44921875,0.615234375-0.556640625t0.908203125-0.107421875q0.64453125,0,1.03515625,0.1953125q0.15625,0.078125,0.29296875,0.17578125t0.13671875,0.25390625q0,1.6796875-0.400390625,3.28125t-0.400390625,3.3984375q0,0.60546875,0.087890625,1.142578125t0.166015625,1.064453125l0.1171875,0.56640625q0,0.15625,0.01953125,0.2734375t0.05859375,0.2734375q0,0.3515625-0.498046875,0.478515625t-0.869140625,0.126953125q-0.56640625,0-1.044921875-0.224609375t-0.751953125-0.771484375l-0.2734375-0.56640625q-0.234375-0.44921875-0.234375-1.005859375t-0.09765625-1.025390625z M56.694140625,35.48828125l0-0.37109375q0-0.91796875,0.458984375-1.640625t1.376953125-0.72265625q0.1171875,0,0.224609375,0.01953125t0.224609375,0.01953125q0.234375,0.0390625,0.615234375,0.185546875t0.380859375,0.458984375l0,0.0390625q-0.078125,0.15625-0.09765625,0.322265625t-0.09765625,0.283203125l0.0390625-0.0390625q-0.234375,0.60546875-0.380859375,0.9765625t-0.322265625,0.595703125t-0.439453125,0.322265625t-0.751953125,0.09765625q-0.078125,0-0.2734375-0.01953125t-0.419921875-0.078125t-0.380859375-0.15625t-0.15625-0.29296875z M63.9728515625,54.6484375q0-0.56640625,0.048828125-1.19140625t0.087890625-1.171875l0.1171875-2.9296875q0.1953125-3.515625,0.478515625-6.9140625t0.478515625-6.875q0.1171875-1.9140625,0.17578125-3.759765625t0.17578125-3.759765625q-0.078125-0.15625-0.078125-0.21484375q0-0.2734375,0.205078125-0.4296875t0.478515625-0.263671875t0.576171875-0.146484375t0.458984375-0.0390625l0.44921875,0q0.60546875,0.078125,0.87890625,0.380859375t0.3515625,0.72265625t0.0390625,0.8984375t-0.0390625,0.888671875q0,2.83203125-0.13671875,5.771484375t-0.3125,5.8984375t-0.322265625,5.91796875t-0.146484375,5.849609375l0,1.3671875q0,0.91796875-0.517578125,1.2109375t-1.435546875,0.29296875q-0.80078125,0-1.40625-0.3515625t-0.60546875-1.15234375z M72.93125,48.515625q0-1.3671875,0.302734375-3.22265625t1.025390625-3.515625t1.904296875-2.822265625t2.978515625-1.162109375q1.6796875,0,2.51953125,0.966796875t0.83984375,2.607421875q0,1.07421875-0.400390625,2.353515625t-1.142578125,2.421875t-1.7578125,1.904296875t-2.265625,0.76171875l-0.5078125-0.0390625q0,0.52734375,0.15625,1.416015625t0.458984375,1.767578125t0.78125,1.54296875t1.162109375,0.6640625q0.99609375,0,1.9140625-0.80078125t1.73828125-1.77734375t1.5234375-1.77734375t1.2890625-0.80078125q0.3125,0,0.64453125,0.09765625t0.37109375,0.546875q0,0.2734375-0.146484375,0.44921875t-0.263671875,0.390625q-0.60546875,1.03515625-1.318359375,1.97265625t-1.611328125,1.69921875t-1.962890625,1.201171875t-2.353515625,0.439453125q-1.6796875,0-2.79296875-0.595703125t-1.796875-1.6015625t-0.986328125-2.32421875t-0.302734375-2.763671875z M76.42734375,47.03125l0.546875,0.48828125q0.390625,0.3515625,0.78125,0.15625t0.703125-0.712890625t0.576171875-1.279296875t0.46875-1.5625t0.302734375-1.5625t0.09765625-1.26953125l0-0.6640625t-0.05859375-0.703125t-0.205078125-0.556640625t-0.458984375-0.283203125q-0.09765625-0.01953125-0.17578125-0.01953125q-0.6640625,0-1.1328125,0.83984375q-0.5078125,0.9375-0.8203125,2.275390625t-0.44921875,2.744140625t-0.17578125,2.109375z"/><path fill="#" d=""/></svg>
